<?xml version="1.0" encoding="iso-8859-1"?>
<!-- Generator: Adobe Illustrator 19.0.0, SVG Export Plug-In . SVG Version: 6.00 Build 0)  -->
<svg version="1.1" id="Layer_1" xmlns="http://www.w3.org/2000/svg" xmlns:xlink="http://www.w3.org/1999/xlink" x="0px" y="0px"
	 viewBox="0 0 192.97 192.97" style="enable-background:new 0 0 192.97 192.97;" xml:space="preserve">
<g>
	<g>
		<g>
			<path d="M34.517,100h123.938c6.633,0,12.031-5.385,12.031-12.004V12.004c0-6.588-5.35-11.943-11.94-11.994
				c-0.021-0.001-0.04-0.01-0.06-0.01h-0.031H34.517h-0.031c-0.021,0-0.04,0.009-0.06,0.01c-6.59,0.051-11.94,5.406-11.94,11.994
				v75.992C22.484,94.615,27.883,100,34.517,100z M35.773,92l40.999-44.416l17.034,15.385C94.567,63.656,95.525,64,96.484,64
				c0.96,0,1.918-0.344,2.68-1.031l17.033-15.385L157.197,92H35.773z M159.737,8.257c1.586,0.539,2.748,1.99,2.748,3.746v73.935
				l-40.352-43.715L159.737,8.257z M148.091,8L96.484,54.609L44.88,8H148.091z M30.484,12.004c0-1.756,1.162-3.207,2.748-3.746
				l37.604,33.966L30.484,85.938V12.004z"/>
			<path d="M176.486,128h-0.001H99.172l10.141-10.142c1.562-1.562,1.562-4.094,0-5.656c-1.562-1.562-4.094-1.562-5.656,0
				l-16.969,16.971c-1.562,1.562-1.562,4.094,0,5.656l16.969,16.971c0.781,0.781,1.805,1.172,2.828,1.172s2.047-0.391,2.828-1.172
				c1.562-1.562,1.562-4.094,0-5.656L99.172,136h77.313V128z"/>
			<path d="M89.312,152.201c-1.562-1.562-4.094-1.562-5.656,0c-1.562,1.562-1.562,4.094,0,5.656L93.797,168H16.484v8h77.313
				l-10.141,10.142c-1.562,1.562-1.562,4.094,0,5.656c0.781,0.781,1.805,1.172,2.828,1.172c1.023,0,2.047-0.391,2.828-1.172
				l16.969-16.971c1.562-1.562,1.562-4.094,0-5.656L89.312,152.201z"/>
		</g>
	</g>
</g>
<g>
</g>
<g>
</g>
<g>
</g>
<g>
</g>
<g>
</g>
<g>
</g>
<g>
</g>
<g>
</g>
<g>
</g>
<g>
</g>
<g>
</g>
<g>
</g>
<g>
</g>
<g>
</g>
<g>
</g>
</svg>
